<svg width="17" height="18" viewBox="0 0 17 18" fill="none" xmlns="http://www.w3.org/2000/svg">
<g id="Frame" clip-path="url(#clip0_934_24)">
<path id="Vector" d="M1 18C1.41818 17.9818 1.83636 17.8545 2.2 17.6364L7.70909 14.3273C8.01818 14.1455 8.38182 14.1455 8.69091 14.3273L14.1636 17.6364C14.5455 17.8727 14.9818 17.9818 15.4364 17.9818C15.9636 17.9818 16.3818 17.5455 16.3818 17.0364V1.63636V0.727273C16.3818 0.327273 16.0545 0 15.6545 0H14.7455H1.63636H0.727273C0.327273 0 0 0.327273 0 0.727273V1.63636V17.0545C0 17.6 0.454545 18.0182 1 18ZM14.7273 16.0545L8.18182 12.1455L1.63636 16.0545V1.63636H14.7273V16.0545Z" fill="white"/>
</g>
<defs>
<clipPath id="clip0_934_24">
<rect width="16.3636" height="18" fill="white"/>
</clipPath>
</defs>
</svg>
